<svg version="1" xmlns="http://www.w3.org/2000/svg" width="306.667" height="306.667" viewBox="0 0 230.000000 230.000000"><path d="M128 11.9c-8.2 3-15.6 8.8-22 17.3C94.1 45 90.7 55.1 90.6 75c-.1 7.4.1 16.4.4 19.9l.5 6.4-6.5 2.4c-3.6 1.3-7.2 2.6-8 3-.8.3-2.1.7-2.8.9-.8.1-2.1.6-3 1-.9.4-2.8.9-4.1 1.1-3.6.6-13.5 5.9-19.3 10.3-2.9 2.2-5.6 4-5.9 4-.3 0-1.1-1.7-1.7-3.8-1.6-5.3-6.4-10.2-10-10.2-3.9 0-11.3 7.9-15.2 16.3-3 6.6-3.1 8.7-.3 14.3 1.3 2.5 1.4 4.2.6 9-1.4 8.6-.8 23 1.2 28.9 3.2 9.3 7.6 17.2 11.5 20.9 9.6 8.8 26.6 16.9 40.5 19.2 4.8.8 24.1 1 33.5.4 3.9-.2 8-.9 15.5-2.6 1.1-.3 3.1-.6 4.5-.9 1.4-.2 4.5-.8 7-1.5 2.5-.6 6.2-1.6 8.4-2.1 2.1-.5 11.9-5.3 21.6-10.5 17.7-9.5 17.9-9.7 31-22.6 7.7-7.6 13.8-14.4 14.7-16.6 2.2-5.2 2.9-20.9 1.3-29.4-1.3-6.6-2.1-8.2-7.8-15.8l-2.3-3h2.1c1.2 0 3.7-1.5 5.6-3.4 3.6-3.6 4.4-7.8 2.4-11.6-1.4-2.7-8.4-7.2-16-10.4l-6.5-2.7.1-7.7c.7-29.4-9.9-51.8-30.1-64-5.4-3.3-6.8-3.7-13.5-3.8-4.8-.1-9.1.4-12 1.5zm21.9 9.6c3.8 1.9 11.3 10.4 15 16.8 5.4 9.4 8.2 19.7 8.7 32.3l.6 11.3-3.4-1c-11.7-3.6-15.7-4.2-20-3-7 2.1-14.7 10.7-19.4 21.8-2.1 5.1-4.4 9.3-5.1 9.3-2.4 0-7.3 5.2-7.3 7.7 0 3.8 2.8 8.9 6.8 12.4 3.4 3 3.8 3.1 10.6 2.7 4.9-.3 11.3-1.9 20.6-5.1 7.4-2.5 16.8-5.5 20.7-6.6l7.3-2 3.6 3.7c4 4.2 8 11.4 10 18.3 1.4 4.5 1.3 5-1.2 10-7.1 14.8-8.2 16.4-14 20.9-3.2 2.5-7.9 6.5-10.4 9-5.5 5.4-19.5 15.4-23 16.5-1.4.4-4.9 1.8-7.7 3.2-2.9 1.4-6 2.2-6.9 1.9-.9-.3-3.9.1-6.7.9-2.9.8-6.3 1.6-7.7 1.9-1.4.3-5 1-8 1.6-9.6 2-27.6 2.9-36.8 2-15.2-1.6-34.7-9.9-43.4-18.5-6.2-6-7.7-11.1-7.9-27.5-.2-14.7 1.6-22.8 5.7-25.5l2.5-1.6-2.2-3c-1.7-2.4-2.7-2.9-4.5-2.5-2.2.6-2.3.4-1.4-1.9 1.4-3.8 4.1-7.5 5-7 .4.3 1.1 2.2 1.5 4.2.8 4.5 4.9 11.3 6.9 11.3.7 0 4.1-1.8 7.4-4 3.4-2.2 8.8-5.3 12-6.9 6.9-3.6 38.2-14.2 38.2-13 0 .5 1.2 1.6 2.6 2.5 2.5 1.7 2.6 1.6 5.1-1 2.2-2.5 2.3-2.9 1-4.9-4.1-6.3-5.9-32.9-3.3-47.1 2.2-11.4 6.8-22.4 11.8-28.1 4.2-4.7 13.5-10.8 19.1-12.4 5-1.4 14.5-1.3 17.6.4zm15.6 68.4c7.2 1.8 11.8 3.3 18 6.1 1.1.5 4.1 1.8 6.8 2.9 2.6 1.1 4.7 2.4 4.7 2.9s-1.7 1.4-3.7 2c-15.1 4.4-17.7 5.2-18.5 5.2-.4 0-8.3 2.7-17.4 6-10.1 3.7-18.1 6-20.7 6h-4.1l2.6-2.8c2.6-2.8 3.4-4.4 8.8-17.1 3.8-9.3 7.1-12.4 14-13 .8 0 5.1.8 9.5 1.8z"/><path d="M154.5 50c-2.3 4.5-1.9 6.8 1.8 9 4.2 2.6 5.7 2.2 8.1-1.9l2-3.4-3.9-3.4c-4.7-4.1-6-4.1-8-.3zM111.6 73.1l-2.7 3.1 2.5 2.3c2 1.9 3.8 2.3 10.2 2.6 7.4.4 7.7.3 9.8-2.4l2-2.8-2.9-2.4c-1.7-1.3-3.5-2.2-4.2-2-.7.2-1.5 0-1.8-.5-.4-.6-2.8-1-5.5-1-4.2 0-5.2.4-7.4 3.1z"/></svg>